<svg
        xmlns="http://www.w3.org/2000/svg"
        height="28000"
        width="11200"
        viewBox="0 0 11200 28000"
        style="background-color:white;"
>


    <path d="m 2053.1609,1655.3439 c 1.8496,212.6264 9.7645,231.418 14.7378,457.4907 -220.8788,-58.0872 -397.6312,-113.3946 -612.5537,-125.4403 l -1.5245,-197.6848 c 222.3416,-19.6531 308.587,-51.5165 599.3404,-134.3656 z"
          transform="translate(0, 0)"></path>


    <path d="m 2053.1609,1655.3439 c 1.8496,212.6264 9.7645,231.418 14.7378,457.4907 -220.8788,-58.0872 -397.6312,-113.3946 -612.5537,-125.4403 l -1.5245,-197.6848 c 222.3416,-19.6531 308.587,-51.5165 599.3404,-134.3656 z"
          transform="translate(2800, 0)"></path>


    <path d="m 799.36697,1894.8907 c 225.83593,-7.5143 277.65053,-5.0969 517.37853,-6.2789 -36.2639,-167.676 -51.456,-251.6691 -53.5662,-478.1364 l -415.56845,5.9455 c -3.43332,112.5056 1.7304,257.1498 -48.24388,478.4698 z"
          transform="translate(5600, 0)"></path>


    <path d="m 1856.2802,2795.6571 -48.6943,-808.9255 -5.4498,-12.8331 -12.5249,-11.2869 c -21.092,27.4892 -632.6821,-594.6308 -639.1523,-614.2888 l -8.0312,-3.0923 c -195.77894,60.4631 -499.1009,124.5724 -596.9007,150.9314 l -10.07336,13.557 -1.89298,14.6502 0.59674,82.7807 c 77.36713,899.1768 59.55604,933.0169 22.11902,1970.4348 l 7.84234,14.7596 657.60764,53.7902 12.7776,-7.8717 c 176.3064,-292.8604 476.5261,-688.5159 621.7762,-842.6056 z"
          transform="translate(8400, 0)"></path>


    <path d="m 1856.2802,2795.6571 -48.6943,-808.9255 -5.4498,-12.8331 -12.5249,-11.2869 c -21.092,27.4892 -632.6821,-594.6308 -639.1523,-614.2888 l -8.0312,-3.0923 c -195.77894,60.4631 -499.1009,124.5724 -596.9007,150.9314 l -10.07336,13.557 -1.89298,14.6502 0.59674,82.7807 c 77.36713,899.1768 59.55604,933.0169 22.11902,1970.4348 l 7.84234,14.7596 657.60764,53.7902 12.7776,-7.8717 c 176.3064,-292.8604 476.5261,-688.5159 621.7762,-842.6056 z"
          transform="translate(0, 2800)"></path>


    <path d="m 1128.6099,3864.4607 -284.10414,-5.8802 -17.86534,-2298.1801 289.74068,-0.9402 z"
          transform="translate(2800, 2800)"></path>


    <path d="m 1886.1933,3051.9861 -393.3973,23.9398 -10.9199,-4.7599 c -54.1162,-163.0266 -291.402,-415.5083 -522.12636,-664.7854 0,0 -12.10991,-498.4665 -9.44993,-503.5065 2.65998,-5.0399 8.81994,-9.6599 8.81994,-9.6599 477.05455,-1.469 895.95735,-48.1672 1297.51095,-108.3592 l 20.1598,8.5399 57.7241,505.6996 c -159.8641,244.4685 -428.4232,594.4692 -448.3213,752.8916 z"
          transform="translate(5600, 2800)"></path>


    <path d="m 1886.1933,3051.9861 -393.3973,23.9398 -10.9199,-4.7599 c -54.1162,-163.0266 -291.402,-415.5083 -522.12636,-664.7854 0,0 -12.10991,-498.4665 -9.44993,-503.5065 2.65998,-5.0399 8.81994,-9.6599 8.81994,-9.6599 477.05455,-1.469 895.95735,-48.1672 1297.51095,-108.3592 l 20.1598,8.5399 57.7241,505.6996 c -159.8641,244.4685 -428.4232,594.4692 -448.3213,752.8916 z"
          transform="translate(8400, 2800)"></path>


    <path d="M 3958.23 699.67 L 3998.13 1062.85 C 3225.13 1119.13 2454.76 1169.26 1691.36 1203.13 L 1683.93 844.288 C 1730.56 846.306 3219.01 763.773 3958.23 699.67 Z"
          transform="translate(0, 5600)"></path>


    <path d="M 3958.23 699.67 L 3998.13 1062.85 C 3225.13 1119.13 2454.76 1169.26 1691.36 1203.13 L 1683.93 844.288 C 1730.56 846.306 3219.01 763.773 3958.23 699.67 Z"
          transform="translate(2800, 5600)"></path>


    <path d="m 2284.1022,1418.2472 c 0.8793,-145.5989 23.1278,-288.8234 97.9536,-426.20601 l -4.9506,-4.64112 c -139.7294,4.52538 -276.6821,5.63333 -411.0486,3.55819 l -3.0167,2.70732 1.8556,11.18822 c 39.6684,113.2404 76.6922,229.1252 58.1309,400.5953 l 2.0885,3.6742 2.2045,0.6188 250.5819,12.2603 z"
          transform="translate(5600, 5600)"></path>


    <path d="m 2284.1022,1418.2472 c 0.8793,-145.5989 23.1278,-288.8234 97.9536,-426.20601 l -4.9506,-4.64112 c -139.7294,4.52538 -276.6821,5.63333 -411.0486,3.55819 l -3.0167,2.70732 1.8556,11.18822 c 39.6684,113.2404 76.6922,229.1252 58.1309,400.5953 l 2.0885,3.6742 2.2045,0.6188 250.5819,12.2603 z"
          transform="translate(8400, 5600)"></path>


    <path d="m 1821.6492,1347.8899 -6.2677,6.7092 c -137.2168,-28.8266 -273.6168,-39.6862 -407.0954,13.7273 l -4.0166,-0.1324 -1.8539,-1.7215 c -7.1534,-123.5697 -14.6445,-247.1877 -34.6971,-372.60014 l -0.9988,-7.08491 c 115.7884,-3.55183 138.5594,43.87705 432.86,-57.51315 z"
          transform="translate(0, 8400)"></path>


    <path d="m 1821.6492,1347.8899 -6.2677,6.7092 c -137.2168,-28.8266 -273.6168,-39.6862 -407.0954,13.7273 l -4.0166,-0.1324 -1.8539,-1.7215 c -7.1534,-123.5697 -14.6445,-247.1877 -34.6971,-372.60014 l -0.9988,-7.08491 c 115.7884,-3.55183 138.5594,43.87705 432.86,-57.51315 z"
          transform="translate(2800, 8400)"></path>


    <path d="m 1287.7912,2469.2907 255.3068,-33.5716 4.9731,-8.5023 c -15.838,-199.0954 -35.7487,-394.118 -35.0682,-609.7319 2.5481,-208.678 35.0978,-437.3572 53.295,-656.468 l -2.8132,-10.6176 -7.8951,-6.6246 -267.1632,-33.3954 c 0,0 -13.6254,2.4406 -13.8845,2.8132 -177.1201,254.7532 -305.92923,362.1371 -593.31278,492.8544 l -13.79375,16.0624 -3.17619,9.9824 8.43959,143.0194 6.89688,231.4083 17.24219,23.9576 c 177.34609,79.0611 431.63866,197.1422 573.71116,430.6917 l 5.2634,5.8079 z"
          transform="translate(5600, 8400)"></path>


    <path d="m 1287.7912,2469.2907 255.3068,-33.5716 4.9731,-8.5023 c -15.838,-199.0954 -35.7487,-394.118 -35.0682,-609.7319 2.5481,-208.678 35.0978,-437.3572 53.295,-656.468 l -2.8132,-10.6176 -7.8951,-6.6246 -267.1632,-33.3954 c 0,0 -13.6254,2.4406 -13.8845,2.8132 -177.1201,254.7532 -305.92923,362.1371 -593.31278,492.8544 l -13.79375,16.0624 -3.17619,9.9824 8.43959,143.0194 6.89688,231.4083 17.24219,23.9576 c 177.34609,79.0611 431.63866,197.1422 573.71116,430.6917 l 5.2634,5.8079 z"
          transform="translate(8400, 8400)"></path>


    <path d="M 385.60542,146.84101 347.7997,297.98059 c 565.03388,42.07905 554.89857,51.65913 587.84691,440.39485 L 1166.93,737.13863 c 20.1478,-397.63896 24.3232,-395.09432 563.3669,-437.21226 l -35.2491,-147.18036 z"
          transform="translate(0, 11200)"></path>


    <path d="M 385.60542,146.84101 347.7997,297.98059 c 565.03388,42.07905 554.89857,51.65913 587.84691,440.39485 L 1166.93,737.13863 c 20.1478,-397.63896 24.3232,-395.09432 563.3669,-437.21226 l -35.2491,-147.18036 z"
          transform="translate(2800, 11200)"></path>


    <path d="m 1631.3252,2584.0882 -7.3759,5.387 -220.6137,35.8849 -35.8021,0.8287 -17.238,-8.7847 c -51.2066,-295.2096 -213.0753,-464.316 -479.30648,-514.4975 l -6.44618,-7.501 -7.2666,-217.7636 8.20422,-10.0794 c 221.48724,-67.7097 409.16634,-193.9886 454.73134,-566.4649 l 9.1991,-3.8122 270.9336,30.4392 7.8526,13.7127 c -101.6011,477.7152 -75.6607,839.9373 23.1281,1242.6508 z"
          transform="translate(5600, 11200)"></path>


    <path d="m 1631.3252,2584.0882 -7.3759,5.387 -220.6137,35.8849 -35.8021,0.8287 -17.238,-8.7847 c -51.2066,-295.2096 -213.0753,-464.316 -479.30648,-514.4975 l -6.44618,-7.501 -7.2666,-217.7636 8.20422,-10.0794 c 221.48724,-67.7097 409.16634,-193.9886 454.73134,-566.4649 l 9.1991,-3.8122 270.9336,30.4392 7.8526,13.7127 c -101.6011,477.7152 -75.6607,839.9373 23.1281,1242.6508 z"
          transform="translate(8400, 11200)"></path>


    <path d="m 1558.5818,1575.8837 c -104.534,204.9221 -185.6729,425.0511 -232.2147,667.6682 -155.1013,6.0729 -183.3133,10.0657 -258.4697,14.828 C 904.14363,1810.005 841.62044,1770.5057 758.1418,1635.1957 l 2.72074,-2.3126 c 227.27346,29.1515 471.36446,37.3419 797.71926,-56.9994 z"
          transform="translate(0, 14000)"></path>


    <path d="M 2174.61,910.701 2187.78,1325.56 C 2161.25,1342.63 1614.09,1683.48 1563.07,1758.4 L 1373.39,1743.59 C 1371.27,1345.42 1375.59,949.756 1321.31,531.302 L 1509.22,500.214 1518,501.611 C 1610.72,600.475 1957.04,768.522 2174.61,910.701 Z"
          transform="translate(2800, 14000)"></path>


    <path d="M 2174.61,910.701 2187.78,1325.56 C 2161.25,1342.63 1614.09,1683.48 1563.07,1758.4 L 1373.39,1743.59 C 1371.27,1345.42 1375.59,949.756 1321.31,531.302 L 1509.22,500.214 1518,501.611 C 1610.72,600.475 1957.04,768.522 2174.61,910.701 Z"
          transform="translate(5600, 14000)"></path>


    <path d="M 1822.14 1372.27 C 1843.74 1241.69 1898.3 1135.08 1967.27 1038.95 C 2063.73 922.072 2161.82 811.446 2300.19 854.719 L 2308.3 845.401 L 2299.29 652.787 L 1694.26 677.71 L 1072.62 627.578 L 1060.3 645.625 L 1047.41 832.691 L 1054.28 843.29 L 1210.7 847.014 C 1268.84 890.208 1358.22 939.96 1434.84 1059.31 C 1466.26 1107.05 1551.07 1230.46 1565.69 1377.64 Z"
          transform="translate(8400, 14000)"></path>


    <path d="m 1572.8604,2368.853 3.0674,-2.9396 c 9.657,-239.0592 78.5672,-373.7199 143.7198,-515.0011 l -1.7893,-3.1313 c -195.9918,28.1467 -390.8333,55.3349 -578.7453,76.7485 l -2.2047,3.7384 c 55.1367,66.0208 99.9439,134.3371 142.9562,203.0522 54.3261,80.0528 70.4872,167.3751 98.4395,252.4514 l 2.9372,2.3045 z"
          transform="translate(0, 16800)"></path>


    <path d="M 1409.4213,2517.6124 1256.0999,2548.2432 1253.2545,2544.2261 C 1221.9108,1747.8666 994.38985,1966.0086 765.10579,1924.4082 769.78289,1885.3399 766.39654,1861.1556 765.92355,1832.6041 1202.4616,1890.2442 1223.2157,1649.2959 1257.6901,1190.4454 L 1411.137,1226.3905 Z"
          transform="translate(2800, 16800)"></path>


    <path d="M 1409.4213,2517.6124 1256.0999,2548.2432 1253.2545,2544.2261 C 1221.9108,1747.8666 994.38985,1966.0086 765.10579,1924.4082 769.78289,1885.3399 766.39654,1861.1556 765.92355,1832.6041 1202.4616,1890.2442 1223.2157,1649.2959 1257.6901,1190.4454 L 1411.137,1226.3905 Z"
          transform="translate(5600, 16800)"></path>


    <path d="m 1406.4526,2534.5436 c 91.4958,-218.8381 197.911,-440.8046 479.6522,-699.5329 l -115.5189,-528.7312 -3.2191,-2.2681 -627.3746,57.5795 -28.0947,4.3898 -625.92729,-4.4415 -9.00176,6.2081 -75.11807,517.4456 3.6214,8.6913 c 111.96111,86.0476 373.11495,338.5224 506.4779,649.2643 l 490.28502,-6.6219 z"
          transform="translate(8400, 16800)"></path>


    <path d="m 1534.393,2320.3522 -11.7571,-335.6396 c -169.6395,-37.2961 -227.1807,-264.6914 -223.6581,-477.5979 l -6.6595,-2.2617 -602.07385,47.7602 -4.97551,7.3744 c 41.28546,424.0967 35.32223,839.2545 -22.56749,1244.5883 l 7.55211,7.5521 656.24174,54.5262 11.3085,-6.5967 c 1.6381,-234.5459 -3.2355,-474.6611 196.5892,-539.7053 z"
          transform="translate(0, 19600)"></path>


    <path d="m 1534.393,2320.3522 -11.7571,-335.6396 c -169.6395,-37.2961 -227.1807,-264.6914 -223.6581,-477.5979 l -6.6595,-2.2617 -602.07385,47.7602 -4.97551,7.3744 c 41.28546,424.0967 35.32223,839.2545 -22.56749,1244.5883 l 7.55211,7.5521 656.24174,54.5262 11.3085,-6.5967 c 1.6381,-234.5459 -3.2355,-474.6611 196.5892,-539.7053 z"
          transform="translate(2800, 19600)"></path>


    <path d="m 1347.9332,2266.1176 c 32.5679,-136.229 80.5893,-271.505 459.3155,-386.3851 l 5.5427,-4.9592 -75.5559,-519.2643 -9.335,-3.5006 c -457.2872,90.2155 -886.86815,125.0188 -1294.38279,115.6893 l -7.83857,4.5381 17.22423,518.9961 4.64126,5.5694 c 207.98467,29.9319 418.26447,55.3373 517.13953,300.4576 l 2.99014,2.7713 377.7995,-31.4572 z"
          transform="translate(5600, 19600)"></path>


    <path d="m 1347.9332,2266.1176 c 32.5679,-136.229 80.5893,-271.505 459.3155,-386.3851 l 5.5427,-4.9592 -75.5559,-519.2643 -9.335,-3.5006 c -457.2872,90.2155 -886.86815,125.0188 -1294.38279,115.6893 l -7.83857,4.5381 17.22423,518.9961 4.64126,5.5694 c 207.98467,29.9319 418.26447,55.3373 517.13953,300.4576 l 2.99014,2.7713 377.7995,-31.4572 z"
          transform="translate(8400, 19600)"></path>


    <path d="m 1591.0121,2556.8589 c -24.6824,-87.4918 -28.5909,-180.3254 -35.1177,-272.4858 l -1.6705,-1.7212 -219.2559,13.7244 -2.0045,2.3983 c 5.277,87.6979 10.2384,175.4608 -2.4341,266.8542 l 1.8971,2.3983 258.1202,-8.6983 z"
          transform="translate(0, 22400)"></path>


    <path d="m 1405.2321,2319.9394 c 3.7754,-0.8207 17.564,-9.3565 17.564,-9.3565 l -4.0708,-507.661 -14.9732,-11.0268 c -198.9506,74.2322 -339.0173,89.5805 -447.10605,72.9508 l -2.37946,2.4374 c -1.60959,121.0376 -4.63749,242.0751 -8.65282,363.1126 l 3.85751,3.5292 c 106.28412,-14.5628 249.82152,6.167 455.76082,86.0143 z"
          transform="translate(2800, 22400)"></path>


    <path d="m 1405.2321,2319.9394 c 3.7754,-0.8207 17.564,-9.3565 17.564,-9.3565 l -4.0708,-507.661 -14.9732,-11.0268 c -198.9506,74.2322 -339.0173,89.5805 -447.10605,72.9508 l -2.37946,2.4374 c -1.60959,121.0376 -4.63749,242.0751 -8.65282,363.1126 l 3.85751,3.5292 c 106.28412,-14.5628 249.82152,6.167 455.76082,86.0143 z"
          transform="translate(5600, 22400)"></path>


    <path d="m 1334.3464,2041.8359 c 56.2376,-225.7076 317.7015,-246.189 558.3412,-287.4945 l 0.8538,-17.5015 -117.6017,-541.4799 -3.8418,-0.8538 c -217.3789,32.3522 -432.7552,68.7097 -652.2236,96.8828 -208.47094,1.0282 -416.94185,-12.0861 -625.41275,-21.7324 l -15.39385,6.6404 -68.5177,512.3736 5.73496,21.8834 c 273.0411,16.6451 496.78222,66.4729 534.94891,241.2066 l 4.90896,4.4821 375.35907,-12.1777 z"
          transform="translate(8400, 22400)"></path>


</svg>