<?xml version="1.0" encoding="UTF-8" standalone="no"?>
<svg
   width="489.00000000000006"
   height="233.85693441435615"
   viewBox="0 0 350.00000000000006 167.38226389575595"
   class="looka-1j8o68f"
   version="1.1"
   id="svg2"
   sodipodi:docname="azulito.svg"
   inkscape:export-filename="main_logo.svg"
   inkscape:export-xdpi="206"
   inkscape:export-ydpi="206"
   xml:space="preserve"
   inkscape:version="1.4 (86a8ad7, 2024-10-11)"
   xmlns:inkscape="http://www.inkscape.org/namespaces/inkscape"
   xmlns:sodipodi="http://sodipodi.sourceforge.net/DTD/sodipodi-0.dtd"
   xmlns="http://www.w3.org/2000/svg"
   xmlns:svg="http://www.w3.org/2000/svg"><sodipodi:namedview
     id="namedview2"
     pagecolor="#ffffff"
     bordercolor="#666666"
     borderopacity="1.0"
     inkscape:showpageshadow="2"
     inkscape:pageopacity="0.0"
     inkscape:pagecheckerboard="0"
     inkscape:deskcolor="#d1d1d1"
     showgrid="false"
     inkscape:zoom="1.5030675"
     inkscape:cx="244.83265"
     inkscape:cy="135.3898"
     inkscape:window-width="1147"
     inkscape:window-height="755"
     inkscape:window-x="78"
     inkscape:window-y="0"
     inkscape:window-maximized="0"
     inkscape:current-layer="svg2" /><defs
     id="SvgjsDefs3179" /><g
     id="g2"
     transform="matrix(0.92147242,0,0,0.92147242,11.243058,17.825804)"
     style="stroke:none;stroke-opacity:1;fill:#206396;fill-opacity:1"><g
       id="SvgjsG6211"
       featurekey="e7LhAk-0"
       transform="matrix(1.2897559,0,0,1.2897559,89.522929,-7.7385356)"
       fill="#f6f6f6"
       style="stroke:none;stroke-opacity:1;fill:#206396;fill-opacity:1"><g
         id="g7"
         style="stroke:none;stroke-opacity:1;fill:#206396;fill-opacity:1"><path
           d="m 82,55 c 9.941162,0 18,-8.058899 18,-18 0,-3.871765 -1.234009,-7.448975 -3.314026,-10.384827 C 99.198669,25.716492 101,23.321655 101,20.5 101,16.910156 98.089844,14 94.5,14 93.922791,14 93.366089,14.082581 92.833313,14.223755 91.994019,9.5497437 87.915588,6 83,6 77.477173,6 73,10.477112 73,16 c 0,1.734558 0.442627,3.365417 1.219605,4.787415 C 68.179687,23.691894 64,29.849792 64,37 c 0,9.941101 8.058899,18 18,18 z M 98,37 c 0,8.822449 -7.177551,16 -16,16 -5.341309,0 -10.067261,-2.640625 -12.974976,-6.67456 0.224549,-0.03681 0.460572,-0.0943 0.659119,-0.0943 7.200012,0 13.1297,-5.388977 14.006592,-12.351013 1.968933,-0.802307 3.708008,-2.039856 5.116333,-3.587341 2.195679,2.8078 5.427978,4.75476 9.120788,5.283386 C 97.969543,36.046081 98,36.519409 98,37 Z"
           id="path1-7"
           style="stroke:none;stroke-opacity:1;fill:#206396;fill-opacity:1" /><path
           d="m 96.097168,80.96582 c 0.417969,-0.393554 0.657715,-0.925781 0.675293,-1.5 0.01709,-0.574218 -0.189941,-1.121093 -0.583496,-1.539062 -0.393555,-0.417969 -0.926758,-0.658203 -1.500488,-0.675781 -0.02246,0 -0.04443,-9.77e-4 -0.06641,-9.77e-4 -0.549804,0 -1.070312,0.207031 -1.472168,0.584961 v 9.76e-4 c -0.418457,0.393555 -0.658203,0.925782 -0.675293,1.5 -0.01758,0.574219 0.189453,1.120118 0.583008,1.538086 0.812012,0.862305 2.177246,0.905274 3.039551,0.0918 z"
           id="path2"
           style="stroke:none;stroke-opacity:1;fill:#206396;fill-opacity:1" /><path
           d="m 85.430664,79.192383 c 0.548828,-0.168946 0.999023,-0.541992 1.26709,-1.049805 0.268555,-0.506836 0.323242,-1.088867 0.153808,-1.637695 -0.169433,-0.548828 -0.541992,-0.999024 -1.049804,-1.267578 -0.313965,-0.166016 -0.65625,-0.25 -1.001953,-0.25 -0.212891,0 -0.427246,0.03125 -0.636719,0.09668 -0.54834,0.168946 -0.998047,0.541993 -1.266602,1.049805 -0.268554,0.507813 -0.323242,1.088867 -0.153808,1.637695 0.349609,1.132813 1.555664,1.776368 2.687988,1.420899 z"
           id="path3"
           style="stroke:none;stroke-opacity:1;fill:#206396;fill-opacity:1" /><path
           d="m 63.109863,65.375305 2.32959,0.525086 c 0.539063,0.121093 0.877441,0.65625 0.755859,1.195312 -0.10498,0.464844 -0.517578,0.780273 -0.974609,0.780273 -0.07275,0 -0.146973,-0.0078 -0.220703,-0.02441 l -1.546265,-0.348571 c 0.167847,1.26947 0.233582,2.798339 0.04395,4.554321 l 2.565796,0.577453 c 0.538574,0.121094 0.876953,0.65625 0.755859,1.195313 -0.104492,0.464844 -0.51709,0.780273 -0.974609,0.780273 -0.07275,0 -0.146485,-0.0078 -0.220703,-0.02441 l -2.444947,-0.550293 c -0.191894,0.935486 -0.445068,1.910645 -0.802612,2.935059 -0.09961,0.28418 -0.07178,0.588867 0.07764,0.857422 0.154297,0.277344 0.419922,0.476562 0.729004,0.545898 l 3.327148,0.744141 c 0.537109,0.116211 1.082519,-0.172852 1.272461,-0.678711 1.640625,-4.387695 1.427734,-7.946289 0.959961,-10.158203 -0.635254,-3.008789 0.04834,-6.120117 1.875488,-8.538086 0.896912,-1.186218 1.822327,-1.928711 2.481567,-2.366821 -0.403198,-0.126526 -0.820495,-0.211426 -1.250854,-0.211426 h -4.32959 c -0.167663,0 -0.331116,0.02447 -0.497558,0.03241 -0.455384,0.267639 -1.373353,0.899047 -2.268799,2.083923 -0.06043,0.0799 -0.109619,0.166199 -0.166931,0.247986 l 1.477478,0.333068 c 0.539062,0.121094 0.877441,0.65625 0.755859,1.195313 -0.104981,0.464844 -0.517578,0.780273 -0.974609,0.780273 -0.07275,0 -0.146973,-0.0078 -0.220704,-0.02441 l -2.00769,-0.452575 c -0.481079,1.265808 -0.662353,2.639282 -0.50647,4.014404 z"
           id="path4"
           style="stroke:none;stroke-opacity:1;fill:#206396;fill-opacity:1" /><path
           d="m 97.294922,64.802734 h 1.984924 c 0.132752,-0.72821 0.214783,-1.497314 0.214783,-2.292968 0,-0.333863 -0.0249,-0.66449 -0.06409,-0.990235 h -1.887573 c -0.552246,0 -1,-0.447265 -1,-1 0,-0.552734 0.447754,-1 1,-1 h 1.441101 c -0.247559,-0.773437 -0.541016,-1.443054 -0.787781,-1.941284 -0.925293,-0.264221 -1.890259,-0.41333 -2.878296,-0.41333 h -3.35376 c 1.0047,1.152161 2.250122,3.041809 2.250122,5.344849 0,2.357421 -0.589355,4.804687 -1.617675,6.71289 l 4.836914,0.0625 c 0.462158,-0.550415 0.934387,-1.421936 1.312683,-2.482422 h -1.451355 c -0.552246,0 -1,-0.447265 -1,-1 0,-0.552734 0.447754,-1 1,-1 z"
           id="path5"
           style="stroke:none;stroke-opacity:1;fill:#206396;fill-opacity:1" /><path
           d="m 15.21759,59.300415 c 0.192444,0.987488 1.055176,1.697266 2.061219,1.697266 H 25 v 15.067627 c -2.825378,0.402282 -5,2.824707 -5,5.76123 v 0.07263 C 20,83.059387 20.940552,84 22.10083,84 H 32.89917 C 34.059448,84 35,83.059387 35,81.89917 v -0.07263 c 0,-2.936523 -2.174622,-5.358948 -5,-5.76123 V 60.997681 h 7.721191 c 1.006043,0 1.868775,-0.709778 2.061219,-1.697266 0.946899,-4.859436 3.281494,-18.787842 0.01331,-23.640503 -3.09729,-4.59906 -2.730346,-7.374817 -2.41278,-8.383911 0.07519,-0.238953 0.193725,-0.45343 0.348266,-0.650513 l 2.522705,-3.217346 c 0.781739,-0.997009 0.509278,-2.453979 -0.579834,-3.101135 l -5.301025,-3.149841 c -0.606995,-0.360718 -0.979065,-1.014588 -0.979065,-1.720704 0,-1.105468 -0.896179,-2.001586 -2.001587,-2.001586 h -7.78479 c -1.105408,0 -2.001587,0.896118 -2.001587,2.001586 0,0.706116 -0.37207,1.359986 -0.979065,1.720704 l -5.301025,3.149841 c -1.089111,0.647156 -1.361572,2.104126 -0.579834,3.101135 l 2.522705,3.217346 c 0.154541,0.197083 0.273071,0.41156 0.348267,0.650513 0.317566,1.009094 0.684509,3.784851 -2.412781,8.383911 -3.268189,4.852661 -0.933594,18.781067 0.0133,23.640503 z"
           id="path6"
           style="stroke:none;stroke-opacity:1;fill:#206396;fill-opacity:1" /><path
           d="m 118,102 h -3.61108 c 3.64318,-1.78107 6.15875,-5.512329 6.15875,-9.840759 0,-1.99878 -0.54657,-3.959412 -1.58057,-5.669922 L 104.30377,62.23291 c -0.87347,-1.444885 -2.07464,-2.615906 -3.46374,-3.476868 0.36499,1.101624 0.6546,2.40094 0.6546,3.753724 0,3.458007 -1.2583,6.540039 -2.505372,8.061523 -0.371094,0.453125 -0.938477,0.713867 -1.555664,0.713867 h -4.791992 c -0.729981,0 -1.388184,-0.373047 -1.761719,-0.998047 -0.371094,-0.62207 -0.387696,-1.374023 -0.04395,-2.012695 0.863282,-1.602539 1.378418,-3.757813 1.378418,-5.764648 0,-2.486817 -2.137878,-4.480774 -2.626953,-4.904114 -0.414245,0.202087 -0.803833,0.457336 -1.135925,0.789428 l -5.331482,5.331482 c -0.820068,0.820069 -2.149719,0.820069 -2.969848,0 l -5.164978,-5.165039 c -0.06421,0.04926 -0.122376,0.105164 -0.200013,0.138672 -0.03027,0.01367 -1.330078,0.607422 -2.571289,2.249024 -1.478027,1.955078 -2.029785,4.476562 -1.51416,6.917968 0.522461,2.472657 0.765137,6.434571 -1.043945,11.272461 -0.456543,1.22168 -1.638184,2.004883 -2.907227,2.004883 -0.223633,0 -0.449707,-0.02441 -0.674805,-0.07519 L 62.747066,80.3252 c -0.865234,-0.193359 -1.609375,-0.749023 -2.040527,-1.524414 -0.424805,-0.763672 -0.504395,-1.670898 -0.21875,-2.489258 1.463867,-4.192383 1.239746,-7.58789 0.793945,-9.698242 -0.506286,-2.397888 -0.161987,-4.85498 0.918335,-6.980225 0.0035,-0.005 0.005,-0.01123 0.0085,-0.01617 0.257446,-0.504272 0.548584,-0.99292 0.889343,-1.453613 -1.861145,0.866272 -3.467773,2.255493 -4.564453,4.069641 l -14.66333,24.256409 c -1.033996,1.71051 -1.580566,3.671142 -1.580566,5.669922 0,4.32843 2.515564,8.05969 6.158752,9.84076 H 46.911133 13 c -0.552246,0 -1,0.44727 -1,1 0,0.55273 0.447754,1 1,1 h 31.012207 c -1.506775,1.50909 -3.155762,3.94305 -3.155762,7.38379 0,5.01074 -6.452636,8.70801 -6.517578,8.74512 -0.395996,0.22265 -0.591797,0.68554 -0.476562,1.125 C 33.977539,121.69336 34.374512,122 34.829102,122 h 61.418457 c 0.171386,0 0.339843,-0.0439 0.489746,-0.12793 0.307617,-0.17285 7.537595,-4.30273 7.537595,-10.48828 0,-4.44458 3.45001,-6.84534 4.32581,-7.38379 H 118 c 0.55225,0 1,-0.44727 1,-1 0,-0.55273 -0.44775,-1 -1,-1 z M 104.59717,85.652344 c 0.53125,-0.151367 1.08496,0.154297 1.2373,0.68457 0.15283,0.53125 -0.15381,1.084961 -0.68457,1.237305 l -11.130857,3.200195 c -0.09228,0.02637 -0.185547,0.03906 -0.276856,0.03906 -0.43457,0 -0.834472,-0.285157 -0.960449,-0.723633 -0.152832,-0.53125 0.153809,-1.084961 0.684571,-1.237305 z M 81.128418,75.199219 c 0.517578,-0.980469 1.38623,-1.700196 2.445312,-2.027344 1.059571,-0.325195 2.182618,-0.22168 3.162598,0.296875 0.979981,0.518555 1.699707,1.386719 2.026367,2.446289 0.326661,1.05957 0.221192,2.182617 -0.296386,3.16211 -0.305115,0.577453 -0.742676,1.049743 -1.25824,1.419372 0.329651,0.380249 0.799133,1.056397 1.228027,2.164856 1.055725,-0.92456 1.90918,-1.345459 2.432984,-1.530823 -0.266053,-0.576049 -0.413514,-1.202758 -0.393982,-1.855163 0.03369,-1.107422 0.496582,-2.135742 1.303711,-2.895508 0.80664,-0.760742 1.859375,-1.150391 2.969726,-1.12793 1.10791,0.03418 2.136719,0.497071 2.896485,1.303711 0.759765,0.807617 1.159668,1.862305 1.126464,2.969727 -0.0332,1.108398 -0.496093,2.137695 -1.303222,2.897461 -0.656983,0.617675 -1.46576,0.965393 -2.298828,1.074951 l 0.01636,0.01105 c 0,0 -3.021118,0.388855 -5.891052,4.289124 l -0.01086,1.600403 c -0.275086,-0.06647 -0.551514,-0.129029 -0.831727,-0.17865 l -0.08813,-0.01563 -2.96283,-0.525269 -1.089844,-0.193237 0.945191,-1.691345 C 84.653564,82.21936 82.399475,80.524658 82.399475,80.524658 l 0.0074,-7.32e-4 c -0.724731,-0.510437 -1.294494,-1.25177 -1.575378,-2.162598 -0.32666,-1.05957 -0.221191,-2.182617 0.296875,-3.162109 z M 61.040039,88.323242 c -0.542969,-0.101562 -0.899902,-0.625 -0.797852,-1.167969 0.10254,-0.541992 0.628419,-0.897461 1.167969,-0.796875 L 80,89.862549 v -0.01386 l 4.802124,0.754638 2.611145,0.462952 0.68927,0.122193 c 0.504761,0.0896 0.998535,0.216125 1.482422,0.368774 0.73999,0.233398 1.450867,0.540955 2.127197,0.914429 l -0.231079,-0.0755 c 3.125244,1.693482 5.464783,4.650696 6.315735,8.229675 0.117126,0.49262 0.02734,0.97254 -0.195435,1.37415 H 81 80 79 V 91.708984 Z M 102.2749,111.38379 c 0,4.4873 -5.175779,7.92187 -6.30322,8.61621 H 37.970215 c 2.172851,-1.80957 4.88623,-4.82715 4.88623,-8.61621 0,-4.42774 3.431641,-6.83301 4.325196,-7.38379 H 79 h 2 24.42725 c -1.50586,1.50977 -3.15235,3.94629 -3.15235,7.38379 z"
           id="path7"
           style="stroke:none;stroke-opacity:1;fill:#206396;fill-opacity:1" /></g></g><g
       id="SvgjsG6212"
       featurekey="Qg0WB5-0"
       transform="matrix(2.4794559,0,0,2.4794559,-1.388494,154.28025)"
       fill="#f6f6f6"
       style="stroke:none;stroke-opacity:1;fill:#206396;fill-opacity:1" /></g></svg>
